<svg width="131" height="115" viewBox="0 0 131 115" fill="none" xmlns="http://www.w3.org/2000/svg">
<g id="Group 1">
<g id="Frame 1">
<rect width="131" height="115" fill="#FFFF00"/>
<g id="Group" style="mix-blend-mode:hard-light">
<path id="Vector" d="M22 56V94H35.5H49V86C49 81.6 48.6 78 48.2 78C47.7 78 43.8 79.7 39.4 81.9L31.5 85.7L31.2 74.2C31.1 67.9 31.2 62.5 31.5 62.2C31.8 61.9 35.7 60.7 40.2 59.5L48.5 57.3L48.8 37.7L49 18H35.5H22V56Z" fill="black"/>
<path id="Vector_2" d="M65 36C65 45.9 65.3 54 65.8 54C66.2 54 72.2 53.3 79.3 52.3L92 50.6V34.3V18H78.5H65V36Z" fill="black"/>
<path id="Vector_3" d="M102 44.8192C102 45.3192 102.3 46.0192 102.6 46.3192C103 46.6192 103.3 50.1192 103.3 54.0192C103.4 61.0192 104.2 62.4192 106.8 59.8192C107.5 59.1192 110.9 57.6192 114.3 56.5192C119.7 54.7192 120.5 54.2192 120.8 51.8192C121.2 48.5192 118.4 47.0192 112.1 47.0192C109.9 47.0192 107.7 46.4192 107 45.5192C105.7 43.9192 102 43.4192 102 44.8192Z" fill="black"/>
<path id="Vector_4" d="M79.5 65.4C72.9 67.7 66.9 69.9 66.2 70.4C65.4 70.9 65 74.6 65 82.6V94H78.5H92V77.5C92 68.4 91.9 61 91.8 61.1C91.6 61.1 86.1 63 79.5 65.4Z" fill="black"/>
</g>
</g>
</g>
</svg>
